PathFileType	4	(X/Y/Z)	D:\TRACE\spotREDO_2-26-24\spot_justBody_Motion_3_2-platform.trc
DataRate	CameraRate	NumFrames	NumMarkers	Units	OrigDataRate	OrigDataStartFrame	OrigNumFrames
100.00	100.00	      30	5	mm	100.00	1751	      7000
Frame#	Time	Left_Front			Right_Front			Left_Aft			Right_Aft			Post			
		X1	Y1	Z1	X2	Y2	Z2	X3	Y3	Z3	X4	Y4	Z4	X5	Y5	Z5	

1751	17.500	-724.70679	-39.58860	-583.55896	690.16992	-25.90326	-499.10178	-796.69531	40.63068	632.31122	773.78394	47.63132	636.21478	-14.83864	562.58459	-1026.30225	
1752	17.510	-724.25287	-40.29324	-583.90204	690.55139	-26.82310	-499.48517	-796.13214	41.54689	632.14960	774.22241	48.63882	635.89191	-14.79816	560.97314	-1027.56274	
1753	17.520	-723.72015	-41.11988	-583.98120	691.05328	-27.43382	-499.76593	-795.73944	42.26824	631.75128	774.49219	49.44244	635.63776	-13.95490	559.11627	-1028.95435	
1754	17.530	-723.06610	-42.21482	-584.21698	691.79370	-28.34390	-499.78473	-795.17133	43.75111	631.54810	775.54797	50.35202	635.18451	-13.46371	557.81140	-1029.78137	
1755	17.540	-722.52417	-43.05898	-584.37512	692.29437	-29.01064	-500.07251	-794.53925	44.10368	631.26721	776.22443	51.02549	634.94812	-12.59012	556.10748	-1030.92651	
1756	17.550	-721.86786	-44.08318	-584.44940	693.14044	-29.84784	-500.14404	-793.71075	45.17532	630.99463	776.09821	51.88640	634.69061	-12.16160	554.71564	-1031.90015	
1757	17.560	-721.38672	-44.86555	-584.59216	693.66913	-30.45442	-500.41312	-793.22266	46.03448	630.69403	777.60101	53.48573	634.74207	-11.51545	553.16663	-1032.95435	
1758	17.570	-720.73602	-45.56678	-584.83447	694.20801	-31.50517	-500.64343	-792.54620	46.74470	630.48517	778.27087	54.48397	634.41205	-10.82974	551.79181	-1033.61328	
1759	17.580	-719.80164	-46.68204	-584.99524	694.92810	-32.38000	-500.68094	-791.72864	48.16491	630.08295	779.18207	55.26397	634.22028	-10.34816	550.12933	-1034.77478	
1760	17.590	-719.36737	-47.22646	-585.25885	695.70911	-32.95604	-501.04590	-791.21246	48.36281	629.63177	779.58167	56.09568	633.72571	-9.56391	548.54492	-1035.63525	
1761	17.600	-718.51324	-48.39264	-585.35229	696.46478	-33.65848	-501.03375	-790.41461	49.36471	629.48633	780.35297	57.34797	633.55017	-8.74078	547.06757	-1036.65869	
1762	17.610	-718.08258	-49.13755	-585.46082	696.94025	-34.16230	-501.24908	-789.75946	50.37727	629.01550	780.72211	57.94467	633.54547	-8.05731	545.62683	-1037.59570	
1763	17.620	-717.10394	-50.01461	-585.81781	697.98346	-34.95004	-501.11765	-789.05225	51.00790	628.69196	781.49146	58.75259	632.64874	-7.48275	544.03040	-1038.59424	
1764	17.630	-716.45496	-51.00435	-585.75452	698.69470	-35.85202	-501.48419	-788.12335	51.58117	628.60742	782.07507	59.29156	632.27649	-6.52791	542.42346	-1039.85474	
1765	17.640	-715.70660	-51.79212	-585.85675	699.23206	-36.54375	-501.80664	-787.53839	52.60731	628.17029	783.16663	60.25000	632.06177	-5.92588	540.98163	-1040.80591	
1766	17.650	-714.82031	-52.81187	-586.06525	700.16028	-37.37583	-501.80096	-786.63989	53.42211	627.83862	783.94836	61.33015	631.76935	-5.09027	539.56293	-1042.19104	
1767	17.660	-714.13940	-53.32552	-586.20215	700.90704	-38.02204	-502.00577	-785.93683	54.34768	627.57526	784.37146	61.92024	631.58051	-4.42481	538.19574	-1043.13049	
1768	17.670	-713.44135	-54.11418	-586.39349	701.80725	-38.76369	-502.06824	-785.19000	55.24917	627.54224	785.41290	63.12194	631.32788	-3.35184	536.61621	-1044.02930	
1769	17.680	-712.60413	-54.99699	-586.62469	702.46863	-39.41427	-502.21277	-784.36688	56.07332	627.15149	786.03833	63.65807	631.11029	-2.69604	535.07202	-1045.18066	
1770	17.690	-711.96814	-55.65608	-586.61658	703.33350	-40.15811	-502.38153	-783.53479	56.68761	626.74243	786.96899	64.31428	630.79956	-1.92517	533.89996	-1045.73547	
1771	17.700	-710.84473	-56.57758	-586.61871	704.50574	-40.93329	-502.58029	-782.57239	57.48487	626.73621	787.95752	65.07690	630.44244	-0.93217	532.40778	-1046.68359	
1772	17.710	-709.85242	-57.35490	-586.85974	705.08356	-41.41970	-502.74020	-781.98602	58.51467	625.93762	788.61639	66.07020	630.24408	-0.08716	531.24670	-1047.24133	
1773	17.720	-709.27521	-57.78283	-587.05603	705.91077	-41.90391	-502.99429	-780.88263	58.84010	626.18713	789.70459	66.54552	629.90942	1.20348	530.08331	-1048.05054	
1774	17.730	-708.20483	-58.86306	-587.16174	706.85791	-42.50866	-503.09998	-779.81110	59.51962	625.97168	790.61505	67.30828	629.74542	1.69677	528.48834	-1048.76392	
1775	17.740	-707.14972	-59.51915	-587.17102	707.72687	-43.22249	-503.11887	-779.12183	60.23373	625.64136	791.23590	68.08308	629.19940	2.82786	527.47693	-1049.57068	
1776	17.750	-706.09741	-60.32836	-587.27490	708.74634	-43.89655	-503.44968	-778.06995	60.87297	625.33582	792.38715	68.79582	629.10120	3.62573	526.21057	-1050.15466	
1777	17.760	-705.32117	-60.94732	-587.50354	709.71655	-44.47453	-503.26276	-776.86096	61.72975	625.19281	793.19653	69.58497	629.06006	4.89022	524.91895	-1050.87488	
1778	17.770	-704.24805	-61.42688	-587.62939	710.67816	-44.95999	-503.45734	-776.17468	62.05633	624.95959	794.24420	69.84856	628.71533	5.78540	524.04193	-1051.52197	
1779	17.780	-703.33508	-61.98152	-587.56976	711.89093	-45.49049	-503.49701	-775.36096	63.40628	624.68018	795.23090	70.42393	628.50189	6.76378	522.83478	-1052.75476	
1780	17.790	-702.09949	-62.93887	-587.79907	712.61060	-45.94406	-503.73428	-774.38110	63.79628	624.22241	796.06592	71.49373	628.37714	7.34011	521.52332	-1053.43042	
